<svg xmlns="http://www.w3.org/2000/svg" viewBox="0 12.699999809265137 288.1300048828125 48.81999969482422" data-asc="0.986328125" width="288.1300048828125" height="48.81999969482422"><defs/><g><g fill="#000000"><g transform="translate(0, 0)"><path d="M5.37 49.32L0 49.32L0 12.70L5.37 12.70L5.37 28.91L24.27 28.91L24.27 12.70L29.64 12.70L29.64 49.32L24.27 49.32L24.27 33.62L5.37 33.62L5.37 49.32ZM58.45 46.41Q53.91 49.80 48.46 49.80Q44.58 49.80 41.50 48.10Q38.43 46.39 36.65 43.43Q34.86 40.48 34.86 36.77Q34.86 33.23 36.50 30.43Q38.13 27.64 40.97 26.03Q43.80 24.41 47.39 24.41Q51.10 24.41 53.92 26.17Q56.74 27.93 58.31 31.07Q59.89 34.20 59.89 38.33L59.89 39.11L40.28 39.11Q40.72 41.02 41.93 42.44Q43.14 43.87 44.96 44.67Q46.78 45.46 49.05 45.46Q53.10 45.46 56.49 42.82L58.45 46.41M40.06 35.64L55.22 35.64Q54.98 33.59 53.96 32.07Q52.93 30.54 51.31 29.68Q49.68 28.81 47.66 28.81Q45.61 28.81 43.97 29.68Q42.33 30.54 41.32 32.08Q40.31 33.62 40.06 35.64ZM85.50 49.32L81.18 49.32L80.88 46.19Q79.54 47.90 77.49 48.85Q75.44 49.80 72.95 49.80Q70.34 49.80 68.29 48.78Q66.24 47.75 65.06 45.97Q63.89 44.19 63.89 41.92Q63.89 39.53 65.16 37.71Q66.43 35.89 68.63 34.85Q70.83 33.81 73.63 33.81Q75.39 33.81 77.21 34.23Q79.03 34.64 80.49 35.40L80.49 34.50Q80.49 32.71 79.58 31.43Q78.66 30.15 77.09 29.47Q75.51 28.78 73.61 28.78Q71.92 28.78 70.18 29.37Q68.43 29.96 66.89 31.18L65.38 27.10Q67.60 25.78 70.01 25.10Q72.41 24.41 74.73 24.41Q78.05 24.41 80.46 25.73Q82.86 27.05 84.18 29.48Q85.50 31.91 85.50 35.21L85.50 49.32M73.93 45.56Q75.66 45.56 77.12 44.84Q78.59 44.12 79.50 42.79Q80.42 41.46 80.49 39.67L80.49 39.33Q79.25 38.40 77.70 37.88Q76.15 37.35 74.54 37.35Q72.07 37.35 70.43 38.53Q68.80 39.70 68.80 41.53Q68.80 42.68 69.47 43.59Q70.14 44.51 71.30 45.03Q72.46 45.56 73.93 45.56ZM116.31 49.32L111.89 49.32L111.62 45.83Q109.96 47.68 107.63 48.74Q105.30 49.80 102.51 49.80Q99.00 49.80 96.22 48.14Q93.43 46.48 91.83 43.60Q90.23 40.72 90.23 37.11Q90.23 33.47 91.83 30.60Q93.43 27.73 96.22 26.07Q99.00 24.41 102.51 24.41Q105.15 24.41 107.41 25.37Q109.67 26.32 111.30 28.03L111.30 12.70L116.31 12.70L116.31 49.32M103.34 45.31Q105.57 45.31 107.36 44.29Q109.16 43.26 110.23 41.50Q111.30 39.75 111.30 37.50L111.30 36.67Q111.30 34.42 110.23 32.67Q109.16 30.91 107.36 29.91Q105.57 28.91 103.34 28.91Q101.07 28.91 99.27 29.98Q97.46 31.05 96.41 32.90Q95.36 34.74 95.36 37.08Q95.36 39.43 96.41 41.28Q97.46 43.14 99.27 44.23Q101.07 45.31 103.34 45.31ZM128.34 61.52L123.34 61.52L123.34 24.90L127.76 24.90L128.03 28.39Q129.69 26.54 132.02 25.48Q134.35 24.41 137.13 24.41Q140.65 24.41 143.42 26.07Q146.19 27.73 147.79 30.60Q149.39 33.47 149.39 37.11Q149.39 40.72 147.79 43.60Q146.19 46.48 143.42 48.14Q140.65 49.80 137.13 49.80Q134.50 49.80 132.25 48.85Q130.00 47.90 128.34 46.19L128.34 61.52M136.33 45.26Q138.65 45.26 140.43 44.21Q142.21 43.16 143.23 41.32Q144.24 39.48 144.24 37.08Q144.24 34.69 143.23 32.85Q142.21 31.01 140.43 29.96Q138.65 28.91 136.35 28.91Q134.18 28.91 132.43 29.87Q130.69 30.83 129.60 32.52Q128.52 34.20 128.34 36.35L128.34 37.87Q128.52 40.01 129.58 41.69Q130.64 43.36 132.39 44.31Q134.13 45.26 136.33 45.26ZM154.61 49.32L154.61 12.70L159.62 12.70L159.62 28.30Q162.33 24.41 167.85 24.41Q172.61 24.41 175.29 27.29Q177.98 30.18 177.98 35.33L177.98 49.32L172.97 49.32L172.97 36.55Q172.97 32.91 171.23 30.91Q169.48 28.91 166.36 28.91Q163.21 28.91 161.41 30.94Q159.62 32.98 159.62 36.55L159.62 49.32L154.61 49.32ZM195.61 49.80Q191.94 49.80 189.01 48.14Q186.08 46.48 184.40 43.62Q182.71 40.75 182.71 37.11Q182.71 33.50 184.40 30.63Q186.08 27.76 189.01 26.09Q191.94 24.41 195.61 24.41Q199.29 24.41 202.20 26.09Q205.10 27.76 206.77 30.63Q208.45 33.50 208.45 37.11Q208.45 40.75 206.77 43.62Q205.10 46.48 202.20 48.14Q199.29 49.80 195.61 49.80M195.58 45.31Q197.80 45.31 199.55 44.23Q201.29 43.14 202.31 41.30Q203.32 39.45 203.32 37.11Q203.32 34.77 202.31 32.92Q201.29 31.08 199.55 29.99Q197.80 28.91 195.58 28.91Q193.38 28.91 191.63 29.99Q189.87 31.08 188.85 32.92Q187.84 34.77 187.84 37.11Q187.84 39.45 188.85 41.30Q189.87 43.14 191.63 44.23Q193.38 45.31 195.58 45.31ZM237.04 49.32L232.03 49.32L232.03 35.69Q232.03 32.57 230.36 30.76Q228.69 28.96 225.81 28.96Q223.75 28.96 222.14 29.88Q220.53 30.81 219.60 32.51Q218.68 34.20 218.68 36.45L218.68 49.32L213.67 49.32L213.67 24.90L217.90 24.90L218.07 28.83Q219.41 26.68 221.73 25.55Q224.05 24.41 226.98 24.41Q231.62 24.41 234.33 27.22Q237.04 30.03 237.04 34.84L237.04 49.32ZM265.36 46.41Q260.82 49.80 255.37 49.80Q251.49 49.80 248.41 48.10Q245.34 46.39 243.55 43.43Q241.77 40.48 241.77 36.77Q241.77 33.23 243.41 30.43Q245.04 27.64 247.88 26.03Q250.71 24.41 254.30 24.41Q258.01 24.41 260.83 26.17Q263.65 27.93 265.22 31.07Q266.80 34.20 266.80 38.33L266.80 39.11L247.19 39.11Q247.63 41.02 248.84 42.44Q250.05 43.87 251.87 44.67Q253.69 45.46 255.96 45.46Q260.01 45.46 263.40 42.82L265.36 46.41M246.97 35.64L262.13 35.64Q261.89 33.59 260.86 32.07Q259.84 30.54 258.22 29.68Q256.59 28.81 254.57 28.81Q252.51 28.81 250.88 29.68Q249.24 30.54 248.23 32.08Q247.22 33.62 246.97 35.64ZM270.31 47.19L271.53 42.70Q272.36 43.53 273.52 44.17Q274.68 44.80 275.99 45.15Q277.29 45.51 278.56 45.51Q280.57 45.51 281.79 44.65Q283.01 43.80 283.01 42.38Q283.01 41.33 282.34 40.64Q281.67 39.94 280.55 39.43Q279.44 38.92 278.17 38.43Q276.54 37.82 274.91 37.01Q273.29 36.21 272.19 34.86Q271.09 33.52 271.09 31.32Q271.09 29.22 272.17 27.67Q273.24 26.12 275.17 25.27Q277.10 24.41 279.61 24.41Q283.52 24.41 287.35 26.37L285.89 30.64Q285.11 30.08 284.03 29.64Q282.96 29.20 281.84 28.94Q280.71 28.69 279.76 28.69Q278.17 28.69 277.21 29.39Q276.25 30.10 276.25 31.30Q276.25 32.03 276.71 32.63Q277.17 33.23 278.19 33.80Q279.20 34.38 280.93 35.08Q282.59 35.74 284.25 36.60Q285.91 37.45 287.02 38.82Q288.13 40.19 288.13 42.41Q288.13 44.60 286.96 46.28Q285.79 47.95 283.70 48.88Q281.62 49.80 278.86 49.80Q274.29 49.80 270.31 47.19Z"/></g></g></g></svg>